# xmcd
#
# Track frame offsets:
#	150
#	3595
#	17852
#	33595
#	52241
#	73643
#	88168
#	102281
#	119783
#	136443
#	152072
#	172513
#
# Disc length: 2518 seconds
#
# Revision: 0
# Processed by: cddbd v1.5.1PL0 Copyright (c) Steve Scherf et al.
# Submitted via: dBpowerAMP V4.0
#
DISCID=a409d40c
DTITLE=Cleo's Family - What did you say?
DYEAR=2005
DGENRE=Jazz+Funk
TTITLE0=Intro
TTITLE1=What did you say?
TTITLE2=Music is my refuge
TTITLE3=He will always be there
TTITLE4=A woman like me
TTITLE5=No pain
TTITLE6=Bassadelic
TTITLE7=I walk alone
TTITLE8=One thousand and one nights
TTITLE9=Red curtain cry
TTITLE10=I want to know
TTITLE11=A world like that
EXTD=Belgian Jazz Blues Group
EXTT0=
EXTT1=
EXTT2=
EXTT3=
EXTT4=
EXTT5=
EXTT6=
EXTT7=
EXTT8=
EXTT9=
EXTT10=
EXTT11=
PLAYORDER=
